<?xml version="1.0" encoding="utf-8" standalone="no"?>
<!DOCTYPE svg PUBLIC "-//W3C//DTD SVG 1.1//EN"
  "http://www.w3.org/Graphics/SVG/1.1/DTD/svg11.dtd">
<svg xmlns:xlink="http://www.w3.org/1999/xlink" width="720pt" height="468pt" viewBox="0 0 720 468" xmlns="http://www.w3.org/2000/svg" version="1.1">
 <metadata>
  <rdf:RDF xmlns:dc="http://purl.org/dc/elements/1.1/" xmlns:cc="http://creativecommons.org/ns#" xmlns:rdf="http://www.w3.org/1999/02/22-rdf-syntax-ns#">
   <cc:Work>
    <dc:type rdf:resource="http://purl.org/dc/dcmitype/StillImage"/>
    <dc:date>2026-09-27T04:07:02.801166</dc:date>
    <dc:format>image/svg+xml</dc:format>
    <dc:creator>
     <cc:Agent>
      <dc:title>Matplotlib v3.10.8, https://matplotlib.org/</dc:title>
     </cc:Agent>
    </dc:creator>
   </cc:Work>
  </rdf:RDF>
 </metadata>
 <defs>
  <style type="text/css">*{stroke-linejoin: round; stroke-linecap: butt}</style>
 </defs>
 <g id="figure_1">
  <g id="patch_1">
   <path d="M 0 468 
L 720 468 
L 720 0 
L 0 0 
z
" style="fill: #ffffff"/>
  </g>
  <g id="axes_1">
   <g id="patch_2">
    <path d="M 60.32 426.04 
L 709.2 426.04 
L 709.2 26.88 
L 60.32 26.88 
z
" style="fill: #ffffff"/>
   </g>
   <g id="matplotlib.axis_1">
    <g id="xtick_1">
     <g id="line2d_1">
      <path d="M 143.440992 426.04 
L 143.440992 26.88 
" clip-path="url(#pa5f8dd9c40)" style="fill: none; stroke: #b0b0b0; stroke-opacity: 0.25; stroke-width: 0.8; stroke-linecap: square"/>
     </g>
     <g id="line2d_2">
      <defs>
       <path id="m474ad62561" d="M 0 0 
L 0 3.5 
" style="stroke: #000000; stroke-width: 0.8"/>
      </defs>
      <g>
       <use xlink:href="#m474ad62561" x="143.440992" y="426.04" style="stroke: #000000; stroke-width: 0.8"/>
      </g>
     </g>
     <g id="text_1">
      <text style="font-size: 10px; font-family: 'DejaVu Sans', 'Bitstream Vera Sans', 'Computer Modern Sans Serif', 'Lucida Grande', 'Verdana', 'Geneva', 'Lucid', 'Arial', 'Helvetica', 'Avant Garde', sans-serif; text-anchor: middle" x="143.440992" y="440.638438" transform="rotate(-0 143.440992 440.638438)">−10</text>
     </g>
    </g>
    <g id="xtick_2">
     <g id="line2d_3">
      <path d="M 277.507107 426.04 
L 277.507107 26.88 
" clip-path="url(#pa5f8dd9c40)" style="fill: none; stroke: #b0b0b0; stroke-opacity: 0.25; stroke-width: 0.8; stroke-linecap: square"/>
     </g>
     <g id="line2d_4">
      <g>
       <use xlink:href="#m474ad62561" x="277.507107" y="426.04" style="stroke: #000000; stroke-width: 0.8"/>
      </g>
     </g>
     <g id="text_2">
      <text style="font-size: 10px; font-family: 'DejaVu Sans', 'Bitstream Vera Sans', 'Computer Modern Sans Serif', 'Lucida Grande', 'Verdana', 'Geneva', 'Lucid', 'Arial', 'Helvetica', 'Avant Garde', sans-serif; text-anchor: middle" x="277.507107" y="440.638438" transform="rotate(-0 277.507107 440.638438)">−5</text>
     </g>
    </g>
    <g id="xtick_3">
     <g id="line2d_5">
      <path d="M 411.573223 426.04 
L 411.573223 26.88 
" clip-path="url(#pa5f8dd9c40)" style="fill: none; stroke: #b0b0b0; stroke-opacity: 0.25; stroke-width: 0.8; stroke-linecap: square"/>
     </g>
     <g id="line2d_6">
      <g>
       <use xlink:href="#m474ad62561" x="411.573223" y="426.04" style="stroke: #000000; stroke-width: 0.8"/>
      </g>
     </g>
     <g id="text_3">
      <text style="font-size: 10px; font-family: 'DejaVu Sans', 'Bitstream Vera Sans', 'Computer Modern Sans Serif', 'Lucida Grande', 'Verdana', 'Geneva', 'Lucid', 'Arial', 'Helvetica', 'Avant Garde', sans-serif; text-anchor: middle" x="411.573223" y="440.638438" transform="rotate(-0 411.573223 440.638438)">0</text>
     </g>
    </g>
    <g id="xtick_4">
     <g id="line2d_7">
      <path d="M 545.639339 426.04 
L 545.639339 26.88 
" clip-path="url(#pa5f8dd9c40)" style="fill: none; stroke: #b0b0b0; stroke-opacity: 0.25; stroke-width: 0.8; stroke-linecap: square"/>
     </g>
     <g id="line2d_8">
      <g>
       <use xlink:href="#m474ad62561" x="545.639339" y="426.04" style="stroke: #000000; stroke-width: 0.8"/>
      </g>
     </g>
     <g id="text_4">
      <text style="font-size: 10px; font-family: 'DejaVu Sans', 'Bitstream Vera Sans', 'Computer Modern Sans Serif', 'Lucida Grande', 'Verdana', 'Geneva', 'Lucid', 'Arial', 'Helvetica', 'Avant Garde', sans-serif; text-anchor: middle" x="545.639339" y="440.638438" transform="rotate(-0 545.639339 440.638438)">5</text>
     </g>
    </g>
    <g id="xtick_5">
     <g id="line2d_9">
      <path d="M 679.705455 426.04 
L 679.705455 26.88 
" clip-path="url(#pa5f8dd9c40)" style="fill: none; stroke: #b0b0b0; stroke-opacity: 0.25; stroke-width: 0.8; stroke-linecap: square"/>
     </g>
     <g id="line2d_10">
      <g>
       <use xlink:href="#m474ad62561" x="679.705455" y="426.04" style="stroke: #000000; stroke-width: 0.8"/>
      </g>
     </g>
     <g id="text_5">
      <text style="font-size: 10px; font-family: 'DejaVu Sans', 'Bitstream Vera Sans', 'Computer Modern Sans Serif', 'Lucida Grande', 'Verdana', 'Geneva', 'Lucid', 'Arial', 'Helvetica', 'Avant Garde', sans-serif; text-anchor: middle" x="679.705455" y="440.638438" transform="rotate(-0 679.705455 440.638438)">10</text>
     </g>
    </g>
    <g id="text_6">
     <text style="font-size: 10px; font-family: 'DejaVu Sans', 'Bitstream Vera Sans', 'Computer Modern Sans Serif', 'Lucida Grande', 'Verdana', 'Geneva', 'Lucid', 'Arial', 'Helvetica', 'Avant Garde', sans-serif; text-anchor: middle" x="384.76" y="454.316563" transform="rotate(-0 384.76 454.316563)">Stops from 18% gray</text>
    </g>
   </g>
   <g id="matplotlib.axis_2">
    <g id="ytick_1">
     <g id="line2d_11">
      <path d="M 60.32 407.896364 
L 709.2 407.896364 
" clip-path="url(#pa5f8dd9c40)" style="fill: none; stroke: #b0b0b0; stroke-opacity: 0.25; stroke-width: 0.8; stroke-linecap: square"/>
     </g>
     <g id="line2d_12">
      <defs>
       <path id="m144b3345e3" d="M 0 0 
L -3.5 0 
" style="stroke: #000000; stroke-width: 0.8"/>
      </defs>
      <g>
       <use xlink:href="#m144b3345e3" x="60.32" y="407.896364" style="stroke: #000000; stroke-width: 0.8"/>
      </g>
     </g>
     <g id="text_7">
      <text style="font-size: 10px; font-family: 'DejaVu Sans', 'Bitstream Vera Sans', 'Computer Modern Sans Serif', 'Lucida Grande', 'Verdana', 'Geneva', 'Lucid', 'Arial', 'Helvetica', 'Avant Garde', sans-serif; text-anchor: end" x="53.32" y="411.695582" transform="rotate(-0 53.32 411.695582)">0.000</text>
     </g>
    </g>
    <g id="ytick_2">
     <g id="line2d_13">
      <path d="M 60.32 357.126648 
L 709.2 357.126648 
" clip-path="url(#pa5f8dd9c40)" style="fill: none; stroke: #b0b0b0; stroke-opacity: 0.25; stroke-width: 0.8; stroke-linecap: square"/>
     </g>
     <g id="line2d_14">
      <g>
       <use xlink:href="#m144b3345e3" x="60.32" y="357.126648" style="stroke: #000000; stroke-width: 0.8"/>
      </g>
     </g>
     <g id="text_8">
      <text style="font-size: 10px; font-family: 'DejaVu Sans', 'Bitstream Vera Sans', 'Computer Modern Sans Serif', 'Lucida Grande', 'Verdana', 'Geneva', 'Lucid', 'Arial', 'Helvetica', 'Avant Garde', sans-serif; text-anchor: end" x="53.32" y="360.925867" transform="rotate(-0 53.32 360.925867)">0.005</text>
     </g>
    </g>
    <g id="ytick_3">
     <g id="line2d_15">
      <path d="M 60.32 306.356932 
L 709.2 306.356932 
" clip-path="url(#pa5f8dd9c40)" style="fill: none; stroke: #b0b0b0; stroke-opacity: 0.25; stroke-width: 0.8; stroke-linecap: square"/>
     </g>
     <g id="line2d_16">
      <g>
       <use xlink:href="#m144b3345e3" x="60.32" y="306.356932" style="stroke: #000000; stroke-width: 0.8"/>
      </g>
     </g>
     <g id="text_9">
      <text style="font-size: 10px; font-family: 'DejaVu Sans', 'Bitstream Vera Sans', 'Computer Modern Sans Serif', 'Lucida Grande', 'Verdana', 'Geneva', 'Lucid', 'Arial', 'Helvetica', 'Avant Garde', sans-serif; text-anchor: end" x="53.32" y="310.156151" transform="rotate(-0 53.32 310.156151)">0.010</text>
     </g>
    </g>
    <g id="ytick_4">
     <g id="line2d_17">
      <path d="M 60.32 255.587217 
L 709.2 255.587217 
" clip-path="url(#pa5f8dd9c40)" style="fill: none; stroke: #b0b0b0; stroke-opacity: 0.25; stroke-width: 0.8; stroke-linecap: square"/>
     </g>
     <g id="line2d_18">
      <g>
       <use xlink:href="#m144b3345e3" x="60.32" y="255.587217" style="stroke: #000000; stroke-width: 0.8"/>
      </g>
     </g>
     <g id="text_10">
      <text style="font-size: 10px; font-family: 'DejaVu Sans', 'Bitstream Vera Sans', 'Computer Modern Sans Serif', 'Lucida Grande', 'Verdana', 'Geneva', 'Lucid', 'Arial', 'Helvetica', 'Avant Garde', sans-serif; text-anchor: end" x="53.32" y="259.386435" transform="rotate(-0 53.32 259.386435)">0.015</text>
     </g>
    </g>
    <g id="ytick_5">
     <g id="line2d_19">
      <path d="M 60.32 204.817501 
L 709.2 204.817501 
" clip-path="url(#pa5f8dd9c40)" style="fill: none; stroke: #b0b0b0; stroke-opacity: 0.25; stroke-width: 0.8; stroke-linecap: square"/>
     </g>
     <g id="line2d_20">
      <g>
       <use xlink:href="#m144b3345e3" x="60.32" y="204.817501" style="stroke: #000000; stroke-width: 0.8"/>
      </g>
     </g>
     <g id="text_11">
      <text style="font-size: 10px; font-family: 'DejaVu Sans', 'Bitstream Vera Sans', 'Computer Modern Sans Serif', 'Lucida Grande', 'Verdana', 'Geneva', 'Lucid', 'Arial', 'Helvetica', 'Avant Garde', sans-serif; text-anchor: end" x="53.32" y="208.61672" transform="rotate(-0 53.32 208.61672)">0.020</text>
     </g>
    </g>
    <g id="ytick_6">
     <g id="line2d_21">
      <path d="M 60.32 154.047785 
L 709.2 154.047785 
" clip-path="url(#pa5f8dd9c40)" style="fill: none; stroke: #b0b0b0; stroke-opacity: 0.25; stroke-width: 0.8; stroke-linecap: square"/>
     </g>
     <g id="line2d_22">
      <g>
       <use xlink:href="#m144b3345e3" x="60.32" y="154.047785" style="stroke: #000000; stroke-width: 0.8"/>
      </g>
     </g>
     <g id="text_12">
      <text style="font-size: 10px; font-family: 'DejaVu Sans', 'Bitstream Vera Sans', 'Computer Modern Sans Serif', 'Lucida Grande', 'Verdana', 'Geneva', 'Lucid', 'Arial', 'Helvetica', 'Avant Garde', sans-serif; text-anchor: end" x="53.32" y="157.847004" transform="rotate(-0 53.32 157.847004)">0.025</text>
     </g>
    </g>
    <g id="ytick_7">
     <g id="line2d_23">
      <path d="M 60.32 103.27807 
L 709.2 103.27807 
" clip-path="url(#pa5f8dd9c40)" style="fill: none; stroke: #b0b0b0; stroke-opacity: 0.25; stroke-width: 0.8; stroke-linecap: square"/>
     </g>
     <g id="line2d_24">
      <g>
       <use xlink:href="#m144b3345e3" x="60.32" y="103.27807" style="stroke: #000000; stroke-width: 0.8"/>
      </g>
     </g>
     <g id="text_13">
      <text style="font-size: 10px; font-family: 'DejaVu Sans', 'Bitstream Vera Sans', 'Computer Modern Sans Serif', 'Lucida Grande', 'Verdana', 'Geneva', 'Lucid', 'Arial', 'Helvetica', 'Avant Garde', sans-serif; text-anchor: end" x="53.32" y="107.077288" transform="rotate(-0 53.32 107.077288)">0.030</text>
     </g>
    </g>
    <g id="ytick_8">
     <g id="line2d_25">
      <path d="M 60.32 52.508354 
L 709.2 52.508354 
" clip-path="url(#pa5f8dd9c40)" style="fill: none; stroke: #b0b0b0; stroke-opacity: 0.25; stroke-width: 0.8; stroke-linecap: square"/>
     </g>
     <g id="line2d_26">
      <g>
       <use xlink:href="#m144b3345e3" x="60.32" y="52.508354" style="stroke: #000000; stroke-width: 0.8"/>
      </g>
     </g>
     <g id="text_14">
      <text style="font-size: 10px; font-family: 'DejaVu Sans', 'Bitstream Vera Sans', 'Computer Modern Sans Serif', 'Lucida Grande', 'Verdana', 'Geneva', 'Lucid', 'Arial', 'Helvetica', 'Avant Garde', sans-serif; text-anchor: end" x="53.32" y="56.307573" transform="rotate(-0 53.32 56.307573)">0.035</text>
     </g>
    </g>
    <g id="text_15">
     <text style="font-size: 10px; font-family: 'DejaVu Sans', 'Bitstream Vera Sans', 'Computer Modern Sans Serif', 'Lucida Grande', 'Verdana', 'Geneva', 'Lucid', 'Arial', 'Helvetica', 'Avant Garde', sans-serif; text-anchor: middle" x="18.612188" y="226.46" transform="rotate(-90 18.612188 226.46)">g''(s): change of allocation per stop²</text>
    </g>
   </g>
   <g id="line2d_27">
    <path d="M 89.814545 406.745609 
L 105.553714 406.167801 
L 118.669687 405.470104 
L 129.818265 404.659671 
L 139.655245 403.722478 
L 148.180628 402.693358 
L 156.050212 401.519523 
L 162.936098 400.277103 
L 169.494085 398.869459 
L 175.396273 397.381533 
L 180.970561 395.751731 
L 186.216951 393.987707 
L 191.135441 392.101906 
L 195.726032 390.111812 
L 200.316622 387.870967 
L 204.579314 385.538102 
L 208.514106 383.144173 
L 212.448898 380.493923 
L 216.38369 377.559907 
L 219.990583 374.595219 
L 223.597475 371.340801 
L 227.204368 367.768339 
L 230.483361 364.21856 
L 233.762355 360.354764 
L 237.041348 356.14917 
L 240.320342 351.571544 
L 243.599335 346.588976 
L 246.878328 341.165642 
L 249.829422 335.875632 
L 252.780516 330.166262 
L 255.73161 324.004288 
L 258.682705 317.35383 
L 261.633799 310.176163 
L 264.584893 302.429494 
L 267.535987 294.068715 
L 270.487081 285.045145 
L 273.438175 275.30624 
L 276.389269 264.795294 
L 279.340363 253.451102 
L 282.291457 241.207612 
L 285.242551 227.993532 
L 288.193645 213.731919 
L 291.144739 198.339731 
L 294.095833 181.727343 
L 297.046927 163.798025 
L 299.998021 144.447379 
L 301.965417 130.702039 
L 302.293316 277.486653 
L 304.588612 278.087456 
L 306.883907 278.910771 
L 309.179203 279.950908 
L 311.802397 281.395955 
L 314.425592 283.102164 
L 317.376686 285.315421 
L 320.32778 287.816953 
L 323.606773 290.903003 
L 327.213666 294.626402 
L 331.148458 299.020648 
L 335.739049 304.494561 
L 341.641237 311.913198 
L 364.92209 341.621857 
L 370.496379 348.156331 
L 375.414869 353.599896 
L 380.333359 358.712668 
L 384.92395 363.172325 
L 389.51454 367.325366 
L 394.105131 371.173023 
L 398.695722 374.721407 
L 403.286313 377.98039 
L 407.876903 380.962624 
L 412.467494 383.682695 
L 417.058085 386.156415 
L 421.976575 388.552159 
L 426.895065 390.704457 
L 432.141454 392.754659 
L 437.715743 394.68118 
L 443.290032 396.374683 
L 449.19222 397.94178 
L 455.422307 399.373483 
L 462.308193 400.7246 
L 469.849878 401.96581 
L 478.047362 403.077276 
L 486.900644 404.048483 
L 496.737624 404.902532 
L 507.886201 405.64568 
L 521.002175 406.2889 
L 536.413444 406.814932 
L 555.431605 407.233869 
L 580.351955 407.548086 
L 616.092983 407.758003 
L 678.393857 407.86871 
L 679.705455 407.869632 
L 679.705455 407.869632 
" clip-path="url(#pa5f8dd9c40)" style="fill: none; stroke: #1f77b4; stroke-width: 1.5; stroke-linecap: square"/>
   </g>
   <g id="line2d_28">
    <path d="M 89.814545 407.199629 
L 109.816405 406.730286 
L 125.555573 406.149285 
L 138.671547 405.451711 
L 149.820124 404.646844 
L 159.657104 403.7233 
L 168.510387 402.674933 
L 176.379971 401.53026 
L 183.593756 400.269524 
L 190.479642 398.843677 
L 196.70973 397.336645 
L 202.611918 395.691676 
L 208.186206 393.919438 
L 213.760495 391.910243 
L 219.006885 389.78019 
L 223.925375 387.553172 
L 228.843865 385.085344 
L 233.762355 382.359516 
L 238.352946 379.568526 
L 242.943536 376.527471 
L 247.534127 373.22723 
L 252.124718 369.661788 
L 256.715309 365.829183 
L 261.633799 361.430044 
L 266.552289 356.739767 
L 271.798678 351.440561 
L 277.700866 345.163991 
L 285.242551 336.790655 
L 301.965417 318.09117 
L 306.883907 312.981201 
L 311.146599 308.857118 
L 314.753491 305.648952 
L 318.032485 302.997415 
L 321.311478 300.632178 
L 324.262572 298.773422 
L 327.213666 297.191159 
L 329.836861 296.030945 
L 332.460056 295.11325 
L 335.08325 294.446313 
L 337.706445 294.036186 
L 340.00174 293.890994 
L 342.297036 293.946347 
L 344.592331 294.201857 
L 346.887626 294.655731 
L 349.510821 295.413212 
L 352.134016 296.418746 
L 354.757211 297.663348 
L 357.380405 299.136061 
L 360.331499 301.049629 
L 363.610493 303.470582 
L 366.889486 306.171885 
L 370.496379 309.427491 
L 374.75907 313.597435 
L 379.67756 318.746523 
L 385.907648 325.61287 
L 406.237407 348.291812 
L 412.139595 354.411699 
L 417.385984 359.54521 
L 422.304474 364.065424 
L 427.222964 368.286408 
L 432.141454 372.201355 
L 436.732045 375.579504 
L 441.322636 378.696326 
L 445.913227 381.560117 
L 450.831717 384.359985 
L 455.750207 386.897296 
L 460.668697 389.188975 
L 465.915086 391.38258 
L 471.161476 393.338395 
L 476.735764 395.179639 
L 482.637952 396.889902 
L 488.86804 398.457789 
L 495.426027 399.876833 
L 502.639812 401.200442 
L 510.181497 402.357296 
L 518.70688 403.431193 
L 527.888061 404.359826 
L 538.38084 405.18997 
L 550.185216 405.895447 
L 563.956988 406.491087 
L 580.679854 406.982338 
L 601.665412 407.36415 
L 629.864755 407.639313 
L 672.491669 407.810901 
L 679.705455 407.825436 
L 679.705455 407.825436 
" clip-path="url(#pa5f8dd9c40)" style="fill: none; stroke: #ff7f0e; stroke-width: 1.5; stroke-linecap: square"/>
   </g>
   <g id="line2d_29">
    <path d="M 89.814545 406.476706 
L 104.242116 405.83497 
L 116.374392 405.075585 
L 126.867171 404.196628 
L 136.048352 403.205562 
L 144.245836 402.098345 
L 151.459621 400.909726 
L 158.345507 399.548496 
L 164.575595 398.089723 
L 170.477783 396.473272 
L 175.724172 394.814053 
L 180.642662 393.040292 
L 185.561152 391.026037 
L 190.151743 388.900384 
L 194.414434 386.687441 
L 198.677126 384.216701 
L 202.611918 381.681288 
L 206.54671 378.874404 
L 210.153603 376.038178 
L 213.760495 372.924776 
L 217.367388 369.507112 
L 220.646381 366.111147 
L 223.925375 362.414771 
L 227.204368 358.391408 
L 230.483361 354.012134 
L 233.762355 349.245463 
L 237.041348 344.057126 
L 240.320342 338.409822 
L 243.271436 332.901347 
L 246.22253 326.956194 
L 249.173624 320.539745 
L 252.124718 313.614638 
L 255.075812 306.140551 
L 258.026906 298.073963 
L 260.978 289.367904 
L 263.929094 279.971682 
L 266.880188 269.830583 
L 269.831282 258.885559 
L 272.782376 247.07288 
L 275.73347 234.323763 
L 278.684564 220.563972 
L 281.635658 205.713389 
L 284.586752 189.68554 
L 287.537846 172.3871 
L 290.48894 153.717344 
L 293.440034 133.567562 
L 296.391128 111.820426 
L 299.342222 88.349309 
L 302.293316 63.017543 
L 304.260713 45.023636 
L 304.588612 273.025451 
L 306.883907 273.640524 
L 309.179203 274.485834 
L 311.474498 275.555538 
L 314.097693 277.043382 
L 316.720887 278.801629 
L 319.344082 280.815101 
L 322.295176 283.364112 
L 325.574169 286.517657 
L 329.181062 290.332034 
L 333.115854 294.843694 
L 337.706445 300.475498 
L 343.280734 307.690598 
L 353.117714 320.876111 
L 362.298895 333.034349 
L 368.528983 340.909237 
L 373.775372 347.199344 
L 378.693862 352.766172 
L 383.612352 357.987062 
L 388.202943 362.5353 
L 392.793534 366.766256 
L 397.384125 370.682316 
L 401.974715 374.290669 
L 406.565306 377.602179 
L 411.155897 380.630397 
L 415.746487 383.390715 
L 420.337078 385.899663 
L 425.255568 388.3283 
L 430.174058 390.509138 
L 435.420448 392.585652 
L 440.666837 394.428205 
L 446.241126 396.155343 
L 452.143314 397.753239 
L 458.373401 399.21281 
L 465.259287 400.589991 
L 472.473073 401.804689 
L 480.342657 402.905146 
L 489.195939 403.911019 
L 499.032919 404.795562 
L 510.181497 405.565252 
L 522.969571 406.217367 
L 538.052941 406.757209 
L 556.743203 407.192562 
L 581.007754 407.520041 
L 615.109285 407.740387 
L 672.819568 407.861261 
L 679.705455 407.866984 
L 679.705455 407.866984 
" clip-path="url(#pa5f8dd9c40)" style="fill: none; stroke: #2ca02c; stroke-width: 1.5; stroke-linecap: square"/>
   </g>
   <g id="line2d_30">
    <path d="M 89.814545 406.695797 
L 105.225814 406.1082 
L 118.013889 405.407632 
L 129.162466 404.576331 
L 138.671547 403.651145 
L 147.19693 402.604437 
L 154.738614 401.465286 
L 161.6245 400.212298 
L 168.182487 398.792681 
L 174.084675 397.2921 
L 179.658964 395.648436 
L 184.905353 393.869408 
L 189.823844 391.967568 
L 194.414434 389.960547 
L 199.005025 387.700643 
L 203.267716 385.347936 
L 207.202508 382.933646 
L 211.137301 380.260854 
L 215.072093 377.301883 
L 218.678985 374.311979 
L 222.285878 371.029881 
L 225.892771 367.427034 
L 229.171764 363.847063 
L 232.450757 359.950403 
L 235.729751 355.709039 
L 239.008744 351.092479 
L 242.287738 346.067531 
L 245.566731 340.59807 
L 248.517825 335.263067 
L 251.468919 329.505136 
L 254.420013 323.290752 
L 257.371107 316.583729 
L 260.322201 309.345013 
L 263.273295 301.532455 
L 266.224389 293.100565 
L 269.175483 284.000246 
L 272.126577 274.178507 
L 275.077671 263.578161 
L 278.028765 252.137483 
L 280.97986 239.789857 
L 283.930954 226.463385 
L 286.882048 212.080472 
L 289.833142 196.557367 
L 292.784236 179.803684 
L 295.73533 161.72187 
L 298.686424 142.206638 
L 299.670122 135.363637 
L 299.998021 280.613795 
L 302.293316 281.258275 
L 304.588612 282.118839 
L 307.211807 283.359262 
L 309.835001 284.863105 
L 312.458196 286.617228 
L 315.40929 288.871014 
L 318.360384 291.398707 
L 321.639377 294.496981 
L 325.24627 298.213708 
L 329.508962 302.953743 
L 334.427452 308.782719 
L 340.985438 316.938375 
L 358.692003 339.168047 
L 364.594191 346.130511 
L 369.84058 351.990553 
L 374.75907 357.164394 
L 379.67756 362.006841 
L 384.268151 366.218017 
L 388.858742 370.129535 
L 393.449332 373.745073 
L 398.039923 377.072522 
L 402.630514 380.122966 
L 407.221105 382.909784 
L 411.811695 385.447891 
L 416.730185 387.909282 
L 421.648676 390.123274 
L 426.895065 392.234602 
L 432.141454 394.11067 
L 437.715743 395.871438 
L 443.617931 397.502338 
L 449.848019 398.993631 
L 456.406005 400.340229 
L 463.619791 401.593626 
L 471.489375 402.730124 
L 480.014758 403.735198 
L 489.523838 404.630405 
L 500.344517 405.419567 
L 512.804691 406.096808 
L 527.560162 406.664736 
L 545.266726 407.115709 
L 568.21968 407.464484 
L 600.025915 407.706393 
L 651.178212 407.845706 
L 679.705455 407.87213 
L 679.705455 407.87213 
" clip-path="url(#pa5f8dd9c40)" style="fill: none; stroke: #d62728; stroke-width: 1.5; stroke-linecap: square"/>
   </g>
   <g id="line2d_31">
    <path d="M 89.814545 406.023559 
L 102.27472 405.311832 
L 113.095398 404.477633 
L 122.604479 403.524943 
L 131.129862 402.447118 
L 138.671547 401.274103 
L 145.557433 399.983866 
L 151.78752 398.601173 
L 157.689708 397.069025 
L 163.263997 395.390784 
L 168.510387 393.574331 
L 173.428877 391.632484 
L 178.019467 389.583243 
L 182.282159 387.44985 
L 186.54485 385.067926 
L 190.479642 382.623655 
L 194.414434 379.917672 
L 198.021327 377.183401 
L 201.62822 374.181919 
L 205.235112 370.88711 
L 205.890911 370.254343 
L 206.21881 373.423976 
L 210.481502 369.849701 
L 214.416294 366.268976 
L 218.351086 362.404976 
L 222.285878 358.246385 
L 226.22067 353.783859 
L 230.483361 348.598721 
L 234.746053 343.044816 
L 239.008744 337.123597 
L 243.599335 330.34584 
L 248.189926 323.172891 
L 253.108416 315.087747 
L 258.682705 305.500105 
L 265.89649 292.618255 
L 280.65196 266.130356 
L 285.57045 257.828881 
L 289.505242 251.585732 
L 293.112135 246.26426 
L 296.391128 241.824404 
L 299.342222 238.198675 
L 301.965417 235.301407 
L 304.588612 232.735766 
L 306.883907 230.78013 
L 309.179203 229.108214 
L 311.474498 227.731331 
L 313.441894 226.793176 
L 315.40929 226.083519 
L 317.376686 225.605994 
L 319.344082 225.363059 
L 321.311478 225.355968 
L 323.278874 225.584758 
L 325.24627 226.048247 
L 327.213666 226.744049 
L 329.181062 227.668601 
L 331.148458 228.817196 
L 333.443754 230.432601 
L 335.739049 232.334064 
L 338.034344 234.508879 
L 340.657539 237.310713 
L 343.280734 240.427385 
L 346.231828 244.278232 
L 349.510821 248.939599 
L 353.117714 254.468495 
L 357.380405 261.444915 
L 362.298895 269.936527 
L 369.512681 282.883273 
L 382.300755 305.867711 
L 388.202943 315.989988 
L 393.449332 324.554127 
L 398.367823 332.146908 
L 402.958413 338.81801 
L 407.221105 344.636915 
L 411.483796 350.08746 
L 415.746487 355.169894 
L 420.009179 359.889791 
L 424.27187 364.256948 
L 428.534562 368.284392 
L 432.797253 371.987514 
L 437.059944 375.383327 
L 441.322636 378.489843 
L 445.585327 381.325559 
L 449.848019 383.909045 
L 454.438609 386.430182 
L 459.0292 388.702254 
L 463.94769 390.8844 
L 468.86618 392.829827 
L 474.11257 394.67009 
L 479.686858 396.388124 
L 485.589046 397.971691 
L 491.819134 399.413278 
L 498.70502 400.769262 
L 505.918805 401.961891 
L 513.78839 403.039656 
L 522.641672 404.022563 
L 532.478652 404.885168 
L 543.627229 405.634451 
L 556.415303 406.268324 
L 571.826572 406.801697 
L 590.844734 407.226058 
L 615.437184 407.5411 
L 650.850313 407.754057 
L 679.705455 407.828855 
L 679.705455 407.828855 
" clip-path="url(#pa5f8dd9c40)" style="fill: none; stroke: #9467bd; stroke-width: 1.5; stroke-linecap: square"/>
   </g>
   <g id="line2d_32">
    <path d="M 89.814545 406.009875 
L 102.27472 405.292947 
L 113.095398 404.452653 
L 122.604479 403.493002 
L 131.129862 402.407301 
L 138.671547 401.225715 
L 145.557433 399.92605 
L 151.78752 398.533254 
L 157.689708 396.989911 
L 163.263997 395.299407 
L 168.510387 393.469682 
L 173.428877 391.513646 
L 178.019467 389.449431 
L 182.282159 387.30045 
L 186.54485 384.901122 
L 190.479642 382.438991 
L 194.414434 379.713236 
L 198.021327 376.958986 
L 201.62822 373.935572 
L 205.235112 370.616689 
L 205.890911 369.979299 
L 206.21881 373.65349 
L 210.809401 370.018891 
L 215.399992 366.08449 
L 219.990583 361.845953 
L 224.581173 357.304247 
L 229.499663 352.110402 
L 234.418154 346.596586 
L 239.992442 340.001135 
L 246.22253 332.275745 
L 255.403711 320.491864 
L 265.240691 307.95187 
L 270.487081 301.609022 
L 274.749772 296.775134 
L 278.684564 292.649878 
L 281.963558 289.510256 
L 285.242551 286.682477 
L 288.193645 284.433762 
L 290.81684 282.690676 
L 293.440034 281.203971 
L 296.063229 279.986673 
L 298.358524 279.151115 
L 300.65382 278.535926 
L 302.949115 278.145389 
L 305.244411 277.982239 
L 307.539706 278.047622 
L 309.835001 278.341079 
L 312.130297 278.86055 
L 314.425592 279.602409 
L 316.720887 280.561515 
L 319.344082 281.915146 
L 321.967277 283.531924 
L 324.590471 285.397816 
L 327.541566 287.774913 
L 330.820559 290.732007 
L 334.099552 293.985878 
L 338.034344 298.227383 
L 342.297036 303.161007 
L 347.543425 309.589639 
L 355.08511 319.222464 
L 367.873184 335.568612 
L 374.103272 343.148789 
L 379.67756 349.576941 
L 384.59605 354.923125 
L 389.51454 359.937629 
L 394.105131 364.306481 
L 398.695722 368.370891 
L 403.286313 372.133071 
L 407.876903 375.599858 
L 412.467494 378.781629 
L 417.058085 381.691357 
L 421.648676 384.343788 
L 426.567166 386.918177 
L 431.485656 389.235573 
L 436.404146 391.316255 
L 441.650535 393.297172 
L 447.224824 395.157654 
L 453.127012 396.882032 
L 459.357099 398.459731 
L 465.915086 399.885109 
L 472.800972 401.157072 
L 480.342657 402.324911 
L 488.54014 403.370145 
L 497.721322 404.313146 
L 507.886201 405.132303 
L 519.690578 405.853482 
L 533.46235 406.462011 
L 549.857317 406.955727 
L 570.514975 407.344093 
L 598.058519 407.625099 
L 639.373836 407.803071 
L 679.705455 407.863467 
L 679.705455 407.863467 
" clip-path="url(#pa5f8dd9c40)" style="fill: none; stroke: #8c564b; stroke-width: 1.5; stroke-linecap: square"/>
   </g>
   <g id="line2d_33">
    <path d="M 89.814545 406.720494 
L 105.553714 406.136932 
L 118.669687 405.438304 
L 130.146164 404.607784 
L 139.983144 403.682105 
L 148.836426 402.636042 
L 157.03391 401.447438 
L 164.575595 400.130714 
L 171.461481 398.709976 
L 178.019467 397.13421 
L 184.249555 395.409836 
L 190.151743 393.548478 
L 195.726032 391.566972 
L 201.30032 389.3498 
L 206.54671 387.032391 
L 211.793099 384.478183 
L 217.039489 381.67649 
L 222.285878 378.61959 
L 227.532267 375.30358 
L 232.778657 371.729232 
L 238.352946 367.655503 
L 244.255134 363.048851 
L 250.485221 357.889579 
L 257.371107 351.886781 
L 265.568591 344.434248 
L 280.97986 330.038559 
L 292.128437 319.781358 
L 300.65382 312.229615 
L 308.851303 305.264246 
L 317.376686 298.311699 
L 328.525264 289.531945 
L 345.903928 275.865192 
L 353.773513 269.364865 
L 360.331499 263.666339 
L 366.233687 258.257797 
L 371.807976 252.863144 
L 377.382265 247.153926 
L 382.628654 241.46415 
L 387.875044 235.442239 
L 393.121433 229.065269 
L 398.039923 222.745345 
L 402.958413 216.077863 
L 407.876903 209.046824 
L 412.795393 201.636683 
L 417.713883 193.832134 
L 422.632374 185.617926 
L 427.550864 176.978683 
L 432.469354 167.89876 
L 434.764649 163.506154 
L 435.092548 407.896364 
L 679.705455 407.896364 
L 679.705455 407.896364 
" clip-path="url(#pa5f8dd9c40)" style="fill: none; stroke: #e377c2; stroke-width: 1.5; stroke-linecap: square"/>
   </g>
   <g id="line2d_34">
    <path d="M 89.814545 407.420611 
L 113.423298 407.021232 
L 131.457761 406.502969 
L 145.885332 405.875762 
L 158.017608 405.135695 
L 168.510387 404.281968 
L 177.691568 403.323027 
L 186.216951 402.20885 
L 193.758636 401.002246 
L 200.644522 399.682213 
L 207.202508 398.195626 
L 213.104697 396.634565 
L 218.678985 394.936723 
L 223.925375 393.113157 
L 228.843865 391.179771 
L 233.762355 389.004185 
L 238.352946 386.73103 
L 242.943536 384.199099 
L 247.206228 381.593913 
L 251.468919 378.721759 
L 255.403711 375.81391 
L 259.338503 372.640641 
L 263.273295 369.182956 
L 267.208087 365.421643 
L 271.142879 361.337564 
L 275.077671 356.912012 
L 279.012463 352.127159 
L 282.947256 346.966581 
L 286.882048 341.41589 
L 290.81684 335.463457 
L 294.751632 329.101243 
L 298.686424 322.325726 
L 302.949115 314.521659 
L 307.211807 306.246361 
L 311.802397 296.833163 
L 316.720887 286.220046 
L 322.295176 273.63044 
L 329.181062 257.486402 
L 344.592331 221.125523 
L 349.182922 210.940775 
L 353.117714 202.713462 
L 356.724607 195.6952 
L 359.675701 190.396159 
L 362.626795 185.551829 
L 365.249989 181.667366 
L 367.545285 178.620489 
L 369.84058 175.922969 
L 372.135875 173.592666 
L 374.103272 171.899492 
L 376.070668 170.496162 
L 378.038064 169.389779 
L 379.67756 168.698745 
L 381.317057 168.220335 
L 382.956554 167.95626 
L 384.59605 167.907468 
L 386.235547 168.074132 
L 387.875044 168.455656 
L 389.51454 169.050673 
L 391.154037 169.857058 
L 393.121433 171.099637 
L 395.088829 172.6361 
L 397.056225 174.458703 
L 399.023621 176.558357 
L 401.318917 179.344261 
L 403.614212 182.474783 
L 406.237407 186.44848 
L 408.860601 190.8131 
L 411.811695 196.147058 
L 415.090689 202.538707 
L 418.697581 210.049728 
L 422.960273 219.443433 
L 428.534562 232.318446 
L 439.683139 258.837626 
L 447.224824 276.441474 
L 452.799113 288.910739 
L 457.717603 299.393894 
L 462.308193 308.671712 
L 466.570885 316.813348 
L 470.833576 324.479459 
L 474.768368 331.126237 
L 478.70316 337.360264 
L 482.637952 343.186575 
L 486.572744 348.614421 
L 490.507537 353.656373 
L 494.442329 358.327527 
L 498.377121 362.644805 
L 502.311913 366.626364 
L 506.246705 370.291087 
L 510.181497 373.65817 
L 514.116289 376.746786 
L 518.37898 379.80043 
L 522.641672 382.57274 
L 526.904363 385.086129 
L 531.494954 387.527731 
L 536.085544 389.718862 
L 541.004035 391.81513 
L 545.922525 393.677366 
L 551.168914 395.433255 
L 556.743203 397.067595 
L 562.645391 398.569851 
L 569.203378 400.000072 
L 576.089264 401.269753 
L 583.630949 402.430087 
L 591.828432 403.464263 
L 601.009613 404.39381 
L 611.174493 405.198626 
L 622.978869 405.905154 
L 636.750641 406.499856 
L 653.473508 406.989084 
L 674.459065 407.368548 
L 679.705455 407.435426 
L 679.705455 407.435426 
" clip-path="url(#pa5f8dd9c40)" style="fill: none; stroke: #7f7f7f; stroke-width: 1.5; stroke-linecap: square"/>
   </g>
   <g id="line2d_35">
    <path d="M 89.814545 405.739933 
L 101.618922 404.979267 
L 112.1117 404.083942 
L 121.292882 403.082084 
L 129.490365 401.972332 
L 137.03205 400.733308 
L 143.917936 399.384899 
L 150.475923 397.875212 
L 156.70601 396.20588 
L 162.280299 394.491305 
L 167.854588 392.542013 
L 173.100977 390.468999 
L 178.019467 388.294349 
L 182.937957 385.875675 
L 187.528548 383.38047 
L 192.119139 380.63939 
L 196.70973 377.637332 
L 201.30032 374.36061 
L 205.890911 370.797692 
L 210.481502 366.940071 
L 215.072093 362.783268 
L 219.662683 358.327962 
L 224.581173 353.231355 
L 229.499663 347.818826 
L 235.073952 341.341708 
L 241.30404 333.750634 
L 250.485221 322.161306 
L 260.650101 309.410504 
L 265.89649 303.176804 
L 270.159181 298.42906 
L 274.093973 294.379995 
L 277.372967 291.300572 
L 280.65196 288.529273 
L 283.603054 286.327658 
L 286.226249 284.62307 
L 288.849444 283.171363 
L 291.472638 281.985265 
L 293.767934 281.173678 
L 296.063229 280.579182 
L 298.358524 280.205917 
L 300.65382 280.056497 
L 302.949115 280.131972 
L 305.244411 280.431813 
L 307.539706 280.953915 
L 309.835001 281.694635 
L 312.130297 282.64884 
L 314.753491 283.992317 
L 317.376686 285.594176 
L 319.999881 287.440527 
L 322.950975 289.790344 
L 326.229968 292.710921 
L 329.836861 296.257889 
L 333.771653 300.468371 
L 338.362244 305.741714 
L 343.936532 312.519512 
L 352.789815 323.703344 
L 362.954694 336.461988 
L 369.184781 343.933468 
L 374.75907 350.272811 
L 379.67756 355.547298 
L 384.59605 360.496225 
L 389.186641 364.809194 
L 393.777232 368.822616 
L 398.367823 372.538427 
L 402.958413 375.963167 
L 407.549004 379.106907 
L 412.139595 381.98231 
L 416.730185 384.603823 
L 421.648676 387.148536 
L 426.567166 389.439492 
L 431.813555 391.625967 
L 437.059944 393.570223 
L 442.634233 395.396186 
L 448.536421 397.088496 
L 454.766509 398.636793 
L 461.324495 400.035557 
L 468.538281 401.338096 
L 476.079966 402.474849 
L 484.605348 403.528692 
L 493.78653 404.438913 
L 504.279309 405.251762 
L 516.411584 405.958297 
L 530.511256 406.547144 
L 547.562021 407.026453 
L 569.203378 407.398463 
L 598.386419 407.661965 
L 643.308628 407.822931 
L 679.705455 407.867699 
L 679.705455 407.867699 
" clip-path="url(#pa5f8dd9c40)" style="fill: none; stroke: #bcbd22; stroke-width: 1.5; stroke-linecap: square"/>
   </g>
   <g id="line2d_36">
    <path d="M 89.814545 407.425789 
L 113.751197 407.022662 
L 131.785661 406.503737 
L 146.213232 405.87422 
L 158.345507 405.129294 
L 168.838286 404.267073 
L 178.019467 403.294877 
L 186.216951 402.208742 
L 193.758636 400.984413 
L 200.644522 399.637735 
L 206.874609 398.194557 
L 212.776797 396.595385 
L 218.023187 394.953903 
L 223.269576 393.073993 
L 228.188066 391.064307 
L 232.778657 388.943476 
L 237.041348 386.735554 
L 241.30404 384.270418 
L 245.238832 381.740756 
L 249.173624 378.94024 
L 252.780516 376.110448 
L 256.387409 373.004109 
L 259.994302 369.594197 
L 263.601195 365.851045 
L 266.880188 362.13166 
L 270.159181 358.083254 
L 273.438175 353.676719 
L 276.717168 348.880377 
L 279.996162 343.659744 
L 283.275155 337.977287 
L 286.226249 332.434524 
L 289.177343 326.452363 
L 292.128437 319.995973 
L 295.079531 313.02776 
L 298.030625 305.507148 
L 300.981719 297.390348 
L 303.932813 288.630096 
L 306.883907 279.175385 
L 308.523404 273.602603 
L 308.851303 296.09098 
L 316.720887 281.020014 
L 328.197364 259.039079 
L 333.443754 249.49835 
L 337.706445 242.210529 
L 341.313338 236.474707 
L 344.592331 231.674239 
L 347.543425 227.740436 
L 350.16662 224.584864 
L 352.789815 221.777639 
L 355.08511 219.625868 
L 357.380405 217.773361 
L 359.675701 216.232612 
L 361.643097 215.168144 
L 363.610493 214.345897 
L 365.577889 213.770076 
L 367.545285 213.443641 
L 369.512681 213.368276 
L 371.480077 213.54437 
L 373.447473 213.971015 
L 375.414869 214.64601 
L 377.382265 215.565894 
L 379.349661 216.725974 
L 381.317057 218.120385 
L 383.612352 220.033992 
L 385.907648 222.244137 
L 388.530842 225.114306 
L 391.154037 228.328391 
L 394.105131 232.322282 
L 397.384125 237.181938 
L 400.991017 242.973262 
L 404.925809 249.732535 
L 409.5164 258.065524 
L 415.746487 269.870837 
L 432.797253 302.455397 
L 438.371542 312.512535 
L 443.290032 320.95676 
L 447.880623 328.422319 
L 452.471213 335.45559 
L 456.733905 341.584253 
L 460.996596 347.319978 
L 465.259287 352.664163 
L 469.19408 357.255585 
L 473.128872 361.527845 
L 477.063664 365.492029 
L 480.998456 369.161034 
L 484.933248 372.549033 
L 489.195939 375.919666 
L 493.458631 378.997761 
L 497.721322 381.80312 
L 501.984013 384.355341 
L 506.574604 386.8427 
L 511.165195 389.0816 
L 516.083685 391.229481 
L 521.002175 393.142395 
L 526.248564 394.950214 
L 531.822853 396.636491 
L 537.725041 398.189543 
L 543.955129 399.602321 
L 550.841015 400.930317 
L 558.382699 402.145839 
L 566.580183 403.230728 
L 575.433465 404.175976 
L 585.598345 405.02933 
L 597.074821 405.761293 
L 610.518694 406.385655 
L 626.585762 406.89781 
L 646.587621 407.300341 
L 673.147468 407.596165 
L 679.705455 407.642947 
L 679.705455 407.642947 
" clip-path="url(#pa5f8dd9c40)" style="fill: none; stroke: #17becf; stroke-width: 1.5; stroke-linecap: square"/>
   </g>
   <g id="line2d_37">
    <path d="M 89.814545 406.630718 
L 105.225814 406.016188 
L 118.013889 405.287698 
L 128.834567 404.457973 
L 138.343647 403.517611 
L 146.86903 402.462928 
L 154.738614 401.271731 
L 161.9524 399.959735 
L 168.510387 398.552214 
L 174.740474 396.995924 
L 180.642662 395.29694 
L 186.216951 393.466216 
L 191.46334 391.519705 
L 196.70973 389.334202 
L 201.62822 387.048304 
L 206.54671 384.514127 
L 211.137301 381.90897 
L 215.727891 379.058048 
L 220.318482 375.949063 
L 224.909073 372.571908 
L 229.499663 368.9195 
L 234.090254 364.98875 
L 239.008744 360.470723 
L 243.927234 355.645938 
L 249.173624 350.184476 
L 255.075812 343.700389 
L 261.961698 335.788358 
L 281.963558 312.567052 
L 286.554148 307.692431 
L 290.48894 303.808247 
L 294.095833 300.543409 
L 297.374826 297.861903 
L 300.32592 295.710646 
L 303.277015 293.831152 
L 305.900209 292.405088 
L 308.523404 291.222237 
L 311.146599 290.293091 
L 313.769793 289.626001 
L 316.065089 289.262088 
L 318.360384 289.106035 
L 320.655679 289.15894 
L 322.950975 289.420429 
L 325.24627 289.888668 
L 327.541566 290.560388 
L 330.16476 291.571193 
L 332.787955 292.83259 
L 335.41115 294.33345 
L 338.362244 296.291895 
L 341.313338 298.51594 
L 344.592331 301.270411 
L 348.199224 304.605248 
L 352.134016 308.553025 
L 356.724607 313.484787 
L 362.626795 320.18783 
L 373.447473 332.919691 
L 381.972856 342.791388 
L 388.202943 349.672197 
L 393.777232 355.494324 
L 399.023621 360.639726 
L 403.942111 365.146398 
L 408.532702 369.066352 
L 413.123293 372.707997 
L 417.713883 376.074596 
L 422.304474 379.173366 
L 426.895065 382.014515 
L 431.813555 384.786803 
L 436.732045 387.294595 
L 441.650535 389.556 
L 446.896925 391.717484 
L 452.143314 393.642115 
L 457.717603 395.451847 
L 463.619791 397.130996 
L 469.849878 398.668823 
L 476.407865 400.059406 
L 483.62165 401.35541 
L 491.491235 402.531919 
L 500.016617 403.573465 
L 509.525698 404.50201 
L 520.018477 405.299546 
L 532.150752 405.993011 
L 546.250424 406.571135 
L 563.30119 407.041829 
L 584.942546 407.407222 
L 614.453486 407.668017 
L 660.359394 407.82662 
L 679.705455 407.854062 
L 679.705455 407.854062 
" clip-path="url(#pa5f8dd9c40)" style="fill: none; stroke: #1f77b4; stroke-width: 1.5; stroke-linecap: square"/>
   </g>
   <g id="patch_3">
    <path d="M 60.32 426.04 
L 60.32 26.88 
" style="fill: none; stroke: #000000; stroke-width: 0.8; stroke-linejoin: miter; stroke-linecap: square"/>
   </g>
   <g id="patch_4">
    <path d="M 709.2 426.04 
L 709.2 26.88 
" style="fill: none; stroke: #000000; stroke-width: 0.8; stroke-linejoin: miter; stroke-linecap: square"/>
   </g>
   <g id="patch_5">
    <path d="M 60.32 426.04 
L 709.2 426.04 
" style="fill: none; stroke: #000000; stroke-width: 0.8; stroke-linejoin: miter; stroke-linecap: square"/>
   </g>
   <g id="patch_6">
    <path d="M 60.32 26.88 
L 709.2 26.88 
" style="fill: none; stroke: #000000; stroke-width: 0.8; stroke-linejoin: miter; stroke-linecap: square"/>
   </g>
   <g id="text_16">
    <text style="font-size: 12px; font-family: 'DejaVu Sans', 'Bitstream Vera Sans', 'Computer Modern Sans Serif', 'Lucida Grande', 'Verdana', 'Geneva', 'Lucid', 'Arial', 'Helvetica', 'Avant Garde', sans-serif; text-anchor: middle" x="384.76" y="20.88" transform="rotate(-0 384.76 20.88)">Second derivative in stop domain</text>
   </g>
   <g id="legend_1">
    <g id="line2d_38">
     <path d="M 514.43625 37.35875 
L 522.43625 37.35875 
L 530.43625 37.35875 
" style="fill: none; stroke: #1f77b4; stroke-width: 1.5; stroke-linecap: square"/>
    </g>
    <g id="text_17">
     <text style="font-size: 8px; font-family: 'DejaVu Sans', 'Bitstream Vera Sans', 'Computer Modern Sans Serif', 'Lucida Grande', 'Verdana', 'Geneva', 'Lucid', 'Arial', 'Helvetica', 'Avant Garde', sans-serif; text-anchor: start" x="536.83625" y="40.15875" transform="rotate(-0 536.83625 40.15875)">ARRI LogC3 EI800</text>
    </g>
    <g id="line2d_39">
     <path d="M 514.43625 49.10125 
L 522.43625 49.10125 
L 530.43625 49.10125 
" style="fill: none; stroke: #ff7f0e; stroke-width: 1.5; stroke-linecap: square"/>
    </g>
    <g id="text_18">
     <text style="font-size: 8px; font-family: 'DejaVu Sans', 'Bitstream Vera Sans', 'Computer Modern Sans Serif', 'Lucida Grande', 'Verdana', 'Geneva', 'Lucid', 'Arial', 'Helvetica', 'Avant Garde', sans-serif; text-anchor: start" x="536.83625" y="51.90125" transform="rotate(-0 536.83625 51.90125)">ARRI LogC4</text>
    </g>
    <g id="line2d_40">
     <path d="M 514.43625 60.84375 
L 522.43625 60.84375 
L 530.43625 60.84375 
" style="fill: none; stroke: #2ca02c; stroke-width: 1.5; stroke-linecap: square"/>
    </g>
    <g id="text_19">
     <text style="font-size: 8px; font-family: 'DejaVu Sans', 'Bitstream Vera Sans', 'Computer Modern Sans Serif', 'Lucida Grande', 'Verdana', 'Geneva', 'Lucid', 'Arial', 'Helvetica', 'Avant Garde', sans-serif; text-anchor: start" x="536.83625" y="63.64375" transform="rotate(-0 536.83625 63.64375)">Sony S-Log3</text>
    </g>
    <g id="line2d_41">
     <path d="M 514.43625 72.58625 
L 522.43625 72.58625 
L 530.43625 72.58625 
" style="fill: none; stroke: #d62728; stroke-width: 1.5; stroke-linecap: square"/>
    </g>
    <g id="text_20">
     <text style="font-size: 8px; font-family: 'DejaVu Sans', 'Bitstream Vera Sans', 'Computer Modern Sans Serif', 'Lucida Grande', 'Verdana', 'Geneva', 'Lucid', 'Arial', 'Helvetica', 'Avant Garde', sans-serif; text-anchor: start" x="536.83625" y="75.38625" transform="rotate(-0 536.83625 75.38625)">Panasonic V-Log</text>
    </g>
    <g id="line2d_42">
     <path d="M 514.43625 84.32875 
L 522.43625 84.32875 
L 530.43625 84.32875 
" style="fill: none; stroke: #9467bd; stroke-width: 1.5; stroke-linecap: square"/>
    </g>
    <g id="text_21">
     <text style="font-size: 8px; font-family: 'DejaVu Sans', 'Bitstream Vera Sans', 'Computer Modern Sans Serif', 'Lucida Grande', 'Verdana', 'Geneva', 'Lucid', 'Arial', 'Helvetica', 'Avant Garde', sans-serif; text-anchor: start" x="536.83625" y="87.12875" transform="rotate(-0 536.83625 87.12875)">FUJIFILM F-Log</text>
    </g>
    <g id="line2d_43">
     <path d="M 514.43625 96.07125 
L 522.43625 96.07125 
L 530.43625 96.07125 
" style="fill: none; stroke: #8c564b; stroke-width: 1.5; stroke-linecap: square"/>
    </g>
    <g id="text_22">
     <text style="font-size: 8px; font-family: 'DejaVu Sans', 'Bitstream Vera Sans', 'Computer Modern Sans Serif', 'Lucida Grande', 'Verdana', 'Geneva', 'Lucid', 'Arial', 'Helvetica', 'Avant Garde', sans-serif; text-anchor: start" x="536.83625" y="98.87125" transform="rotate(-0 536.83625 98.87125)">FUJIFILM F-Log2</text>
    </g>
    <g id="line2d_44">
     <path d="M 624.52375 37.35875 
L 632.52375 37.35875 
L 640.52375 37.35875 
" style="fill: none; stroke: #e377c2; stroke-width: 1.5; stroke-linecap: square"/>
    </g>
    <g id="text_23">
     <text style="font-size: 8px; font-family: 'DejaVu Sans', 'Bitstream Vera Sans', 'Computer Modern Sans Serif', 'Lucida Grande', 'Verdana', 'Geneva', 'Lucid', 'Arial', 'Helvetica', 'Avant Garde', sans-serif; text-anchor: start" x="646.92375" y="40.15875" transform="rotate(-0 646.92375 40.15875)">Nikon N-Log</text>
    </g>
    <g id="line2d_45">
     <path d="M 624.52375 49.10125 
L 632.52375 49.10125 
L 640.52375 49.10125 
" style="fill: none; stroke: #7f7f7f; stroke-width: 1.5; stroke-linecap: square"/>
    </g>
    <g id="text_24">
     <text style="font-size: 8px; font-family: 'DejaVu Sans', 'Bitstream Vera Sans', 'Computer Modern Sans Serif', 'Lucida Grande', 'Verdana', 'Geneva', 'Lucid', 'Arial', 'Helvetica', 'Avant Garde', sans-serif; text-anchor: start" x="646.92375" y="51.90125" transform="rotate(-0 646.92375 51.90125)">Canon Log</text>
    </g>
    <g id="line2d_46">
     <path d="M 624.52375 60.84375 
L 632.52375 60.84375 
L 640.52375 60.84375 
" style="fill: none; stroke: #bcbd22; stroke-width: 1.5; stroke-linecap: square"/>
    </g>
    <g id="text_25">
     <text style="font-size: 8px; font-family: 'DejaVu Sans', 'Bitstream Vera Sans', 'Computer Modern Sans Serif', 'Lucida Grande', 'Verdana', 'Geneva', 'Lucid', 'Arial', 'Helvetica', 'Avant Garde', sans-serif; text-anchor: start" x="646.92375" y="63.64375" transform="rotate(-0 646.92375 63.64375)">Canon Log 2</text>
    </g>
    <g id="line2d_47">
     <path d="M 624.52375 72.58625 
L 632.52375 72.58625 
L 640.52375 72.58625 
" style="fill: none; stroke: #17becf; stroke-width: 1.5; stroke-linecap: square"/>
    </g>
    <g id="text_26">
     <text style="font-size: 8px; font-family: 'DejaVu Sans', 'Bitstream Vera Sans', 'Computer Modern Sans Serif', 'Lucida Grande', 'Verdana', 'Geneva', 'Lucid', 'Arial', 'Helvetica', 'Avant Garde', sans-serif; text-anchor: start" x="646.92375" y="75.38625" transform="rotate(-0 646.92375 75.38625)">Canon Log 3</text>
    </g>
    <g id="line2d_48">
     <path d="M 624.52375 84.32875 
L 632.52375 84.32875 
L 640.52375 84.32875 
" style="fill: none; stroke: #1f77b4; stroke-width: 1.5; stroke-linecap: square"/>
    </g>
    <g id="text_27">
     <text style="font-size: 8px; font-family: 'DejaVu Sans', 'Bitstream Vera Sans', 'Computer Modern Sans Serif', 'Lucida Grande', 'Verdana', 'Geneva', 'Lucid', 'Arial', 'Helvetica', 'Avant Garde', sans-serif; text-anchor: start" x="646.92375" y="87.12875" transform="rotate(-0 646.92375 87.12875)">RED Log3G10</text>
    </g>
   </g>
  </g>
 </g>
 <defs>
  <clipPath id="pa5f8dd9c40">
   <rect x="60.32" y="26.88" width="648.88" height="399.16"/>
  </clipPath>
 </defs>
</svg>
